<svg width="316" height="133" viewBox="0 0 316 133" fill="none" xmlns="http://www.w3.org/2000/svg"><path fill="#9D2B2E" d="M0 26h3v107H0zm313 0h3v107h-3z"/><path d="M7 120h304m-299-7l-7 7 7 7m293-14l7 7-7 7" stroke="#9D2B2E" stroke-width="3"/><path d="M48.404 3.785c4.718 1.278 6.355 2.62 12.712 2.617C73.884 6.4 80.346-.77 94.166.068c16.406.994 23.939 10.92 39.408 16.452 17.793 6.363 28.146 12.153 47.035 11.4 31.78-1.266 47.691-20.335 80.085-20.335 21.611 0 48.306 12.735 48.306 38 0 24.137-13.877 35.524-36.865 43.135-14.141 4.683-29.64 1.255-44.492 2.465-8.961.73-14.016 1.039-22.881 2.533-18.895 3.184-28.386 9.54-47.035 13.933-6.917 1.63-8.876 2.789-15.98 2.549-6.137-.207-10.97-.521-17.071-1.213-8.751-.992-13.302-.858-23.607-.054-7.358.574-8.899 5.067-20.34 5.067-3.813 0-6.682-1.592-12.711-7.6-2.543-2.533-3.814-3.8-10.17-5.067-4.488-.894-6.49-1.53-9.444-5.013-3.268-3.853-1.61-7.857-3.268-11.453-2.694-5.844-10.17-1.198-13.983-6.334-3.386-4.56-1.165-11.4-2.86-13.933-2.22-3.318-4.767-3.8-6.039-6.333-3.011-6.002-1.27-6.334-1.27-12.667 0-5.223-6.674-3.8-10.716-8.867-3.707-4.646-3.927-10.752-2.314-16.466 1.567-5.554 3.549-8.913 7.944-12.667 2.01-1.717 5.622-3.241 11.441-5.067C35.39.008 40.26 1.577 48.404 3.785z" fill="#FF7C2A"/></svg>