<svg width="463" height="1227" viewBox="0 0 463 1227" fill="none" xmlns="http://www.w3.org/2000/svg"><path d="M447.629 168.158c-5.193 19.161-10.639 25.812-10.631 51.628.014 51.858 29.128 78.1 25.725 134.234-4.038 66.625-44.353 97.223-66.819 160.048-25.84 72.263-49.357 114.312-46.3 191.026 5.145 129.071 82.592 193.696 82.592 325.256 0 87.77-51.725 196.19-154.333 196.19-98.032 0-144.278-56.36-175.192-149.72-19.017-57.43-5.095-120.38-10.008-180.699-2.964-36.394-4.222-56.928-10.289-92.932-12.931-76.737-38.746-115.286-56.589-191.025-6.618-28.094-11.326-36.05-10.351-64.902.841-24.924 2.116-44.554 4.926-69.334 4.03-35.542 3.483-54.022.218-95.877C18.247 352.169 0 345.911 0 299.445c0-15.488 6.465-27.139 30.867-51.628 10.289-10.326 15.433-15.489 20.578-41.303 3.632-18.227 6.211-26.36 20.36-38.357 15.65-13.271 31.912-6.539 46.517-13.271 23.734-10.941 4.864-41.304 25.723-56.792 18.52-13.751 46.3-4.73 56.588-11.613 13.477-9.017 15.434-19.364 25.723-24.527 24.375-12.231 25.722-5.163 51.444-5.163 21.211 0 15.433-27.102 36.011-43.518 18.872-15.055 43.67-15.949 66.878-9.398 22.554 6.366 36.197 14.413 51.444 32.265 6.972 8.163 13.164 22.831 20.578 46.466 10.256 32.694 3.882 52.478-5.082 85.552z" fill="#FF7C2A"/></svg>