<svg width="20" height="20" viewBox="0 0 20 20" fill="none" xmlns="http://www.w3.org/2000/svg"><path d="M10 6.876a3.13 3.13 0 00-3.125 3.125 3.13 3.13 0 003.124 3.124A3.13 3.13 0 0013.123 10 3.13 3.13 0 0010 6.876zm9.37 3.125c0-1.294.011-2.576-.062-3.868-.072-1.5-.414-2.83-1.511-3.928-1.1-1.099-2.428-1.439-3.928-1.512-1.294-.072-2.576-.06-3.867-.06-1.294 0-2.576-.012-3.868.06-1.5.073-2.831.415-3.928 1.512C1.107 3.305.767 4.633.694 6.133.622 7.427.634 8.71.634 10.001c0 1.29-.012 2.575.06 3.867.073 1.5.415 2.83 1.512 3.928 1.1 1.099 2.428 1.439 3.928 1.512 1.294.072 2.576.06 3.867.06 1.294 0 2.576.012 3.868-.06 1.5-.073 2.83-.415 3.928-1.512 1.099-1.1 1.439-2.428 1.511-3.928.076-1.292.061-2.574.061-3.867zM10 14.806A4.8 4.8 0 015.192 10 4.8 4.8 0 0110 5.193a4.8 4.8 0 014.807 4.808A4.8 4.8 0 0110 14.806zm5.003-8.688a1.121 1.121 0 01-1.123-1.122c0-.622.502-1.123 1.123-1.123a1.121 1.121 0 01.43 2.16 1.121 1.121 0 01-.43.085z" fill="#000"/></svg>