<svg width="202" height="29" viewBox="0 0 202 29" fill="none" xmlns="http://www.w3.org/2000/svg"><g clip-path="url(#clip0_1212_2354)" fill="#fff"><path d="M83.533 16.648L80.09 4.465h-4.537l-3.445 12.183-3.293-12.183h-5.11l5.518 17.857h5.213l3.25-11.428 3.25 11.428h5.348l5.52-17.857h-4.977m14.457 3.572c2.145 0 3.658 1.592 3.891 3.262h-8.053c.364-2.132 2.193-3.262 4.162-3.262zm.236-3.916c-5.349 0-9.207 3.778-9.207 9.272 0 5.598 3.824 9.272 9.072 9.272 4.469 0 8.091-2.712 8.632-6.318h-4.841c-.406 1.442-1.726 2.3-3.825 2.3-2.264 0-3.943-1.518-4.245-3.914h13.081c.643-6.147-2.979-10.612-8.667-10.612zm19.736 3.916c2.146 0 3.659 1.592 3.892 3.262h-8.054c.364-2.132 2.193-3.262 4.162-3.262zm.238-3.916c-5.35 0-9.209 3.778-9.209 9.272 0 5.598 3.826 9.272 9.072 9.272 4.469 0 8.092-2.712 8.634-6.318h-4.842c-.406 1.442-1.726 2.3-3.825 2.3-2.265 0-3.943-1.518-4.246-3.914h13.082c.643-6.147-2.979-10.612-8.666-10.612zm20.178 7.418c-2.742-.377-4.434-.687-4.434-1.889 0-.927.575-1.648 2.945-1.648 1.828 0 2.775.892 2.979 2.3h5.213c-.204-3.227-2.776-6.18-8.124-6.18-5.011 0-7.821 2.163-7.821 5.528 0 4.12 4.57 5.048 6.297 5.29 3.554.48 4.909.755 4.909 2.025 0 1.167-.948 1.82-3.149 1.82-2.132 0-3.283-.962-3.521-2.439h-4.943c.238 3.538 2.98 6.32 8.397 6.32 5.247 0 8.158-2.404 8.158-6.01 0-4.12-4.401-4.773-6.906-5.117zM157.58.001h-4.537v4.464h-3.113v4.121h3.113v8.928c0 3.125 1.66 4.808 4.741 4.808h4.265v-4.189h-3.114c-.881 0-1.355-.481-1.355-1.374V8.586h4.469v-4.12h-4.469m35.108 13.975c-2.607 0-4.402-2.06-4.402-5.048 0-2.987 1.795-5.047 4.402-5.047s4.401 2.06 4.401 5.047c0 2.988-1.794 5.048-4.401 5.048zm1.049-14.217c-2.102 0-3.912.914-5.213 2.47V4.466h-4.469v24.21h4.808V20.47c1.269 1.326 2.948 2.092 4.874 2.092 4.739 0 8.261-3.914 8.261-9.169 0-5.253-3.522-9.169-8.261-9.169zm-21.359 3.813c2.145 0 3.659 1.592 3.892 3.262h-8.054c.364-2.132 2.193-3.262 4.162-3.262zm.237-3.916c-5.349 0-9.209 3.778-9.209 9.272 0 5.598 3.826 9.272 9.073 9.272 4.469 0 8.092-2.712 8.633-6.318h-4.841c-.406 1.442-1.726 2.3-3.826 2.3-2.264 0-3.943-1.518-4.245-3.914h13.082c.643-6.147-2.979-10.612-8.667-10.612zM41.2 22.503c1.834.746 3.919-.159 4.654-2.021l4.531-11.481c.735-1.862-.157-3.975-1.993-4.72-1.835-.746-3.918.158-4.653 2.02l-4.532 11.482c-.735 1.861.157 3.975 1.992 4.72zm-31.764.001c-1.835.745-3.92-.159-4.655-2.021L.257 9C-.478 7.14.415 5.026 2.25 4.281c1.835-.746 3.919.158 4.654 2.02l4.525 11.482c.734 1.862-.158 3.975-1.993 4.72zm25.949-.001c-1.836.746-3.92-.159-4.654-2.021L26.207 9.001c-.735-1.862.157-3.975 1.992-4.72 1.835-.746 3.92.158 4.654 2.02l4.525 11.482c.734 1.861-.158 3.975-1.993 4.72zm-20.135 0c1.835.746 3.92-.159 4.655-2.021l4.53-11.481c.736-1.862-.156-3.975-1.991-4.72-1.836-.746-3.92.158-4.655 2.02l-4.532 11.482c-.735 1.861.158 3.975 1.993 4.72z"/><g clip-path="url(#clip1_1212_2354)"><path d="M83.533 16.648L80.09 4.465h-4.537l-3.445 12.183-3.293-12.183h-5.11l5.518 17.857h5.213l3.25-11.428 3.25 11.428h5.348l5.52-17.857h-4.977m14.457 3.572c2.145 0 3.658 1.592 3.891 3.262h-8.053c.364-2.132 2.193-3.262 4.162-3.262zm.236-3.916c-5.349 0-9.207 3.778-9.207 9.272 0 5.598 3.824 9.272 9.072 9.272 4.469 0 8.091-2.712 8.632-6.318h-4.841c-.406 1.442-1.726 2.3-3.825 2.3-2.264 0-3.943-1.518-4.245-3.914h13.081c.643-6.147-2.979-10.612-8.667-10.612zm19.736 3.916c2.146 0 3.659 1.592 3.892 3.262h-8.054c.364-2.132 2.193-3.262 4.162-3.262zm.238-3.916c-5.35 0-9.209 3.778-9.209 9.272 0 5.598 3.826 9.272 9.072 9.272 4.469 0 8.092-2.712 8.634-6.318h-4.842c-.406 1.442-1.726 2.3-3.825 2.3-2.265 0-3.943-1.518-4.246-3.914h13.082c.643-6.147-2.979-10.612-8.666-10.612zm20.178 7.418c-2.742-.377-4.434-.687-4.434-1.889 0-.927.575-1.648 2.945-1.648 1.828 0 2.775.892 2.979 2.3h5.213c-.204-3.227-2.776-6.18-8.124-6.18-5.011 0-7.821 2.163-7.821 5.528 0 4.12 4.57 5.048 6.297 5.29 3.554.48 4.909.755 4.909 2.025 0 1.167-.948 1.82-3.149 1.82-2.132 0-3.283-.962-3.521-2.439h-4.943c.238 3.538 2.98 6.32 8.397 6.32 5.247 0 8.158-2.404 8.158-6.01 0-4.12-4.401-4.773-6.906-5.117zM157.58.001h-4.537v4.464h-3.113v4.121h3.113v8.928c0 3.125 1.66 4.808 4.741 4.808h4.265v-4.189h-3.114c-.881 0-1.355-.481-1.355-1.374V8.586h4.469v-4.12h-4.469m35.108 13.975c-2.607 0-4.402-2.06-4.402-5.048 0-2.987 1.795-5.047 4.402-5.047s4.401 2.06 4.401 5.047c0 2.988-1.794 5.048-4.401 5.048zm1.049-14.217c-2.102 0-3.912.914-5.213 2.47V4.466h-4.469v24.21h4.808V20.47c1.269 1.326 2.948 2.092 4.874 2.092 4.739 0 8.261-3.914 8.261-9.169 0-5.253-3.522-9.169-8.261-9.169zm-21.359 3.813c2.145 0 3.659 1.592 3.892 3.262h-8.054c.364-2.132 2.193-3.262 4.162-3.262zm.237-3.916c-5.349 0-9.209 3.778-9.209 9.272 0 5.598 3.826 9.272 9.073 9.272 4.469 0 8.092-2.712 8.633-6.318h-4.841c-.406 1.442-1.726 2.3-3.826 2.3-2.264 0-3.943-1.518-4.245-3.914h13.082c.643-6.147-2.979-10.612-8.667-10.612zM41.2 22.503c1.834.746 3.919-.159 4.654-2.021l4.531-11.481c.735-1.862-.157-3.975-1.993-4.72-1.835-.746-3.918.158-4.653 2.02l-4.532 11.482c-.735 1.861.157 3.975 1.992 4.72zm-31.764.001c-1.835.745-3.92-.159-4.655-2.021L.257 9C-.478 7.14.415 5.026 2.25 4.281c1.835-.746 3.919.158 4.654 2.02l4.525 11.482c.734 1.862-.158 3.975-1.993 4.72zm25.949-.001c-1.836.746-3.92-.159-4.654-2.021L26.207 9.001c-.735-1.862.157-3.975 1.992-4.72 1.835-.746 3.92.158 4.654 2.02l4.525 11.482c.734 1.861-.158 3.975-1.993 4.72zm-20.135 0c1.835.746 3.92-.159 4.655-2.021l4.53-11.481c.736-1.862-.156-3.975-1.991-4.72-1.836-.746-3.92.158-4.655 2.02l-4.532 11.482c-.735 1.861.158 3.975 1.993 4.72z"/></g></g><defs><clipPath id="clip0_1212_2354"><path fill="#fff" d="M0 0h202v28.675H0z"/></clipPath><clipPath id="clip1_1212_2354"><path fill="#fff" d="M0 0h202v28.675H0z"/></clipPath></defs></svg>