<svg width="272" height="39" viewBox="0 0 272 39" fill="none" xmlns="http://www.w3.org/2000/svg"><g clip-path="url(#clip0_2342:190)"><path d="M112.365 22.394l-4.634-16.387h-6.103l-4.634 16.387-4.428-16.387H85.69l7.423 24.02h7.013l4.372-15.374 4.37 15.374h7.195l7.424-24.02h-6.694m19.444 4.803c2.886 0 4.921 2.142 5.235 4.389h-10.833c.49-2.869 2.95-4.389 5.598-4.389zm.318-5.266c-7.195 0-12.385 5.081-12.385 12.472 0 7.53 5.145 12.472 12.204 12.472 6.01 0 10.883-3.649 11.611-8.499h-6.512c-.546 1.94-2.322 3.095-5.145 3.095-3.046 0-5.304-2.043-5.711-5.266h17.596c.866-8.269-4.007-14.274-11.658-14.274zm26.549 5.266c2.886 0 4.921 2.142 5.235 4.389h-10.833c.49-2.869 2.949-4.389 5.598-4.389zm.32-5.266c-7.196 0-12.387 5.081-12.387 12.472 0 7.53 5.146 12.472 12.203 12.472 6.011 0 10.884-3.649 11.614-8.499h-6.514c-.546 1.94-2.322 3.095-5.144 3.095-3.047 0-5.305-2.043-5.711-5.266h17.595c.866-8.269-4.007-14.274-11.656-14.274zm27.14 9.977c-3.688-.507-5.965-.924-5.965-2.54 0-1.247.774-2.217 3.962-2.217 2.459 0 3.733 1.2 4.007 3.095h7.012c-.274-4.341-3.733-8.315-10.928-8.315-6.74 0-10.519 2.91-10.519 7.437 0 5.542 6.147 6.79 8.469 7.114 4.781.646 6.603 1.017 6.603 2.725 0 1.57-1.274 2.449-4.235 2.449-2.868 0-4.417-1.294-4.736-3.28h-6.649c.32 4.758 4.008 8.499 11.295 8.499 7.058 0 10.974-3.234 10.974-8.084 0-5.542-5.92-6.42-9.29-6.883zM211.967.001h-6.103v6.006h-4.188v5.542h4.188v12.01c0 4.203 2.232 6.467 6.377 6.467h5.737v-5.635h-4.189c-1.185 0-1.822-.647-1.822-1.848V11.55h6.011V6.007h-6.011m47.222 18.799c-3.507 0-5.92-2.772-5.92-6.79 0-4.019 2.413-6.79 5.92-6.79s5.92 2.771 5.92 6.79c0 4.018-2.413 6.79-5.92 6.79zM260.6 5.683c-2.828 0-5.261 1.228-7.012 3.323v-3h-6.011v32.565h6.467V27.535c1.707 1.784 3.966 2.814 6.556 2.814 6.376 0 11.113-5.265 11.113-12.333 0-7.067-4.737-12.333-11.113-12.333zm-28.733 5.127c2.885 0 4.921 2.142 5.235 4.389h-10.833c.488-2.869 2.949-4.389 5.598-4.389zm.318-5.266c-7.194 0-12.386 5.081-12.386 12.472 0 7.53 5.146 12.472 12.204 12.472 6.011 0 10.884-3.649 11.612-8.499h-6.511c-.546 1.94-2.323 3.095-5.147 3.095-3.045 0-5.304-2.043-5.711-5.266h17.598c.865-8.269-4.008-14.274-11.659-14.274zM55.418 30.27c2.468 1.003 5.272-.213 6.26-2.719l6.096-15.444c.988-2.504-.211-5.346-2.68-6.35-2.47-1.002-5.272.214-6.26 2.718l-6.097 15.446c-.988 2.503.212 5.346 2.68 6.35zm-42.726 0c-2.468 1.003-5.272-.213-6.26-2.718L.345 12.108c-.989-2.504.212-5.347 2.68-6.35 2.469-1.003 5.271.214 6.26 2.718l6.087 15.445c.987 2.504-.212 5.347-2.68 6.35zm34.904 0c-2.47 1.003-5.272-.213-6.26-2.719L35.25 12.107c-.989-2.504.212-5.346 2.68-6.35 2.469-1.002 5.273.214 6.26 2.718l6.087 15.446c.987 2.503-.212 5.346-2.68 6.35zm-27.082 0c2.468 1.003 5.272-.213 6.26-2.719l6.095-15.444c.989-2.504-.21-5.346-2.679-6.35-2.47-1.002-5.272.214-6.26 2.718l-6.097 15.446c-.989 2.503.212 5.346 2.68 6.35z" fill="#fff"/><g clip-path="url(#clip1_2342:190)"><path d="M112.365 22.394l-4.634-16.387h-6.103l-4.634 16.387-4.428-16.387H85.69l7.423 24.02h7.013l4.372-15.374 4.37 15.374h7.195l7.424-24.02h-6.694m19.444 4.803c2.886 0 4.921 2.142 5.235 4.389h-10.833c.49-2.869 2.95-4.389 5.598-4.389zm.318-5.266c-7.195 0-12.385 5.081-12.385 12.472 0 7.53 5.145 12.472 12.204 12.472 6.01 0 10.883-3.649 11.611-8.499h-6.512c-.546 1.94-2.322 3.095-5.145 3.095-3.046 0-5.304-2.043-5.711-5.266h17.596c.866-8.269-4.007-14.274-11.658-14.274zm26.549 5.266c2.886 0 4.921 2.142 5.235 4.389h-10.833c.49-2.869 2.949-4.389 5.598-4.389zm.32-5.266c-7.196 0-12.387 5.081-12.387 12.472 0 7.53 5.146 12.472 12.203 12.472 6.011 0 10.884-3.649 11.614-8.499h-6.514c-.546 1.94-2.322 3.095-5.144 3.095-3.047 0-5.305-2.043-5.711-5.266h17.595c.866-8.269-4.007-14.274-11.656-14.274zm27.14 9.977c-3.688-.507-5.965-.924-5.965-2.54 0-1.247.774-2.217 3.962-2.217 2.459 0 3.733 1.2 4.007 3.095h7.012c-.274-4.341-3.733-8.315-10.928-8.315-6.74 0-10.519 2.91-10.519 7.437 0 5.542 6.147 6.79 8.469 7.114 4.781.646 6.603 1.017 6.603 2.725 0 1.57-1.274 2.449-4.235 2.449-2.868 0-4.417-1.294-4.736-3.28h-6.649c.32 4.758 4.008 8.499 11.295 8.499 7.058 0 10.974-3.234 10.974-8.084 0-5.542-5.92-6.42-9.29-6.883zM211.967.001h-6.103v6.006h-4.188v5.542h4.188v12.01c0 4.203 2.232 6.467 6.377 6.467h5.737v-5.635h-4.189c-1.185 0-1.822-.647-1.822-1.848V11.55h6.011V6.007h-6.011m47.222 18.799c-3.507 0-5.92-2.772-5.92-6.79 0-4.019 2.413-6.79 5.92-6.79s5.92 2.771 5.92 6.79c0 4.018-2.413 6.79-5.92 6.79zM260.6 5.683c-2.828 0-5.261 1.228-7.012 3.323v-3h-6.011v32.565h6.467V27.535c1.707 1.784 3.966 2.814 6.556 2.814 6.376 0 11.113-5.265 11.113-12.333 0-7.067-4.737-12.333-11.113-12.333zm-28.733 5.127c2.885 0 4.921 2.142 5.235 4.389h-10.833c.488-2.869 2.949-4.389 5.598-4.389zm.318-5.266c-7.194 0-12.386 5.081-12.386 12.472 0 7.53 5.146 12.472 12.204 12.472 6.011 0 10.884-3.649 11.612-8.499h-6.511c-.546 1.94-2.323 3.095-5.147 3.095-3.045 0-5.304-2.043-5.711-5.266h17.598c.865-8.269-4.008-14.274-11.659-14.274z" fill="#000"/><path d="M55.418 30.27c2.468 1.003 5.272-.213 6.26-2.719l6.096-15.444c.988-2.504-.211-5.346-2.68-6.35-2.47-1.002-5.272.214-6.26 2.718l-6.097 15.446c-.988 2.503.212 5.346 2.68 6.35z" fill="#FD6B28"/><path d="M12.692 30.27c-2.468 1.003-5.272-.213-6.26-2.718L.345 12.108c-.989-2.504.212-5.347 2.68-6.35 2.469-1.003 5.271.214 6.26 2.718l6.087 15.445c.987 2.504-.212 5.347-2.68 6.35z" fill="#E7CEB7"/><path d="M47.596 30.27c-2.47 1.003-5.272-.213-6.26-2.719L35.25 12.107c-.989-2.504.212-5.346 2.68-6.35 2.469-1.002 5.273.214 6.26 2.718l6.087 15.446c.987 2.503-.212 5.346-2.68 6.35z" fill="#9D2B2E"/><path d="M20.514 30.27c2.468 1.003 5.272-.213 6.26-2.719l6.095-15.444c.989-2.504-.21-5.346-2.679-6.35-2.47-1.002-5.272.214-6.26 2.718l-6.097 15.446c-.989 2.503.212 5.346 2.68 6.35z" fill="#115E67"/></g></g><defs><clipPath id="clip0_2342:190"><path fill="#fff" d="M0 0h271.714v38.571H0z"/></clipPath><clipPath id="clip1_2342:190"><path fill="#fff" d="M0 0h271.714v38.571H0z"/></clipPath></defs></svg>