<svg width="38" height="44" viewBox="0 0 38 44" fill="none" xmlns="http://www.w3.org/2000/svg"><path d="M31.689 32l-10.537 9.25-2.588 2.063s-1.718-1.185-2.588-2.063c-.87-.878-10.54-9.25-10.54-9.25a18.803 18.803 0 01-5.08-9.598 18.916 18.916 0 011.057-10.83A18.707 18.707 0 018.25 3.159 18.434 18.434 0 0118.563 0c3.67 0 7.26 1.1 10.312 3.16a18.707 18.707 0 016.837 8.412 18.917 18.917 0 011.056 10.83A18.803 18.803 0 0131.688 32z" fill="#FF7C2A"/><path d="M18.563 24.75a6.187 6.187 0 100-12.375 6.187 6.187 0 000 12.375z" fill="#fff"/></svg>