<svg width="22" height="24" viewBox="0 0 22 24" fill="none" xmlns="http://www.w3.org/2000/svg"><path d="M11.53.02C12.84 0 14.14.012 15.44 0c.079 1.53.63 3.09 1.75 4.172 1.118 1.11 2.7 1.617 4.239 1.789v4.027c-1.442-.047-2.891-.348-4.2-.968-.57-.258-1.101-.59-1.621-.93-.007 2.921.012 5.84-.019 8.75a7.612 7.612 0 01-1.352 3.941c-1.308 1.918-3.578 3.168-5.91 3.207-1.43.082-2.859-.308-4.078-1.027C2.23 21.771.81 19.59.601 17.25c-.026-.496-.03-.992-.012-1.488a7.497 7.497 0 012.582-4.961C4.827 9.358 7.147 8.67 9.32 9.078c.02 1.481-.039 2.961-.039 4.442-.992-.32-2.152-.23-3.019.372a3.464 3.464 0 00-1.364 1.75c-.207.506-.148 1.07-.136 1.608.238 1.641 1.816 3.02 3.5 2.871 1.117-.012 2.188-.66 2.77-1.609.188-.332.399-.672.41-1.063.098-1.788.06-3.57.071-5.358.008-4.031-.012-8.051.019-12.07z" fill="#000"/></svg>