<svg width="24" height="17" viewBox="0 0 24 17" fill="none" xmlns="http://www.w3.org/2000/svg"><path fill-rule="evenodd" clip-rule="evenodd" d="M21.39.514a3.007 3.007 0 012.116 2.115C24.02 4.507 24 8.422 24 8.422s0 3.894-.494 5.772a3.007 3.007 0 01-2.116 2.116c-1.878.494-9.39.494-9.39.494s-7.493 0-9.39-.514a3.007 3.007 0 01-2.116-2.115C0 12.316 0 8.402 0 8.402s0-3.895.494-5.773A3.069 3.069 0 012.61.494C4.488 0 12 0 12 0s7.512 0 9.39.514zm-5.535 7.887L9.608 12V4.803l6.247 3.598z" fill="#000"/></svg>